<mxfile host="app.diagrams.net" modified="2021-04-17T06:22:43.473Z" agent="5.0 (Windows NT 10.0; Win64; x64) AppleWebKit/537.36 (KHTML, like Gecko) Chrome/89.0.4389.114 Safari/537.36" etag="fiN5Mc9_v1MwCCuTpiQr" version="14.6.1" type="github">
  <diagram id="C5RBs43oDa-KdzZeNtuy" name="Page-1">
    <mxGraphModel dx="1038" dy="580" grid="1" gridSize="10" guides="1" tooltips="1" connect="1" arrows="1" fold="1" page="1" pageScale="1" pageWidth="827" pageHeight="1169" math="0" shadow="0">
      <root>
        <mxCell id="WIyWlLk6GJQsqaUBKTNV-0" />
        <mxCell id="WIyWlLk6GJQsqaUBKTNV-1" parent="WIyWlLk6GJQsqaUBKTNV-0" />
        <mxCell id="q2Y23rmSe2kXCbVwOv9_-29" style="edgeStyle=orthogonalEdgeStyle;rounded=0;orthogonalLoop=1;jettySize=auto;html=1;exitX=0.5;exitY=1;exitDx=0;exitDy=0;entryX=0.5;entryY=0;entryDx=0;entryDy=0;" edge="1" parent="WIyWlLk6GJQsqaUBKTNV-1" source="q2Y23rmSe2kXCbVwOv9_-0" target="q2Y23rmSe2kXCbVwOv9_-26">
          <mxGeometry relative="1" as="geometry" />
        </mxCell>
        <mxCell id="q2Y23rmSe2kXCbVwOv9_-50" style="edgeStyle=orthogonalEdgeStyle;rounded=0;orthogonalLoop=1;jettySize=auto;html=1;exitX=0.5;exitY=1;exitDx=0;exitDy=0;entryX=0.5;entryY=0;entryDx=0;entryDy=0;" edge="1" parent="WIyWlLk6GJQsqaUBKTNV-1" source="q2Y23rmSe2kXCbVwOv9_-0" target="q2Y23rmSe2kXCbVwOv9_-49">
          <mxGeometry relative="1" as="geometry">
            <Array as="points">
              <mxPoint x="665" y="80" />
              <mxPoint x="775" y="80" />
            </Array>
          </mxGeometry>
        </mxCell>
        <mxCell id="q2Y23rmSe2kXCbVwOv9_-0" value="Receiver" style="rounded=0;whiteSpace=wrap;html=1;" vertex="1" parent="WIyWlLk6GJQsqaUBKTNV-1">
          <mxGeometry x="630" y="40" width="70" height="30" as="geometry" />
        </mxCell>
        <mxCell id="q2Y23rmSe2kXCbVwOv9_-1" value="Rate Gyro" style="rounded=0;whiteSpace=wrap;html=1;" vertex="1" parent="WIyWlLk6GJQsqaUBKTNV-1">
          <mxGeometry x="40" y="210" width="80" height="30" as="geometry" />
        </mxCell>
        <mxCell id="q2Y23rmSe2kXCbVwOv9_-2" value="Accelerometer" style="rounded=0;whiteSpace=wrap;html=1;" vertex="1" parent="WIyWlLk6GJQsqaUBKTNV-1">
          <mxGeometry x="40" y="150" width="100" height="30" as="geometry" />
        </mxCell>
        <mxCell id="q2Y23rmSe2kXCbVwOv9_-13" style="edgeStyle=orthogonalEdgeStyle;rounded=0;orthogonalLoop=1;jettySize=auto;html=1;exitX=1;exitY=0.5;exitDx=0;exitDy=0;entryX=0;entryY=0.5;entryDx=0;entryDy=0;" edge="1" parent="WIyWlLk6GJQsqaUBKTNV-1" source="q2Y23rmSe2kXCbVwOv9_-3" target="q2Y23rmSe2kXCbVwOv9_-10">
          <mxGeometry relative="1" as="geometry">
            <Array as="points">
              <mxPoint x="280" y="110" />
              <mxPoint x="280" y="165" />
            </Array>
          </mxGeometry>
        </mxCell>
        <mxCell id="q2Y23rmSe2kXCbVwOv9_-28" style="edgeStyle=orthogonalEdgeStyle;rounded=0;orthogonalLoop=1;jettySize=auto;html=1;exitX=1;exitY=0.5;exitDx=0;exitDy=0;entryX=0;entryY=0.5;entryDx=0;entryDy=0;" edge="1" parent="WIyWlLk6GJQsqaUBKTNV-1" source="q2Y23rmSe2kXCbVwOv9_-3" target="q2Y23rmSe2kXCbVwOv9_-27">
          <mxGeometry relative="1" as="geometry" />
        </mxCell>
        <mxCell id="q2Y23rmSe2kXCbVwOv9_-3" value="GPS/Compas&lt;br&gt;/Barometer" style="rounded=0;whiteSpace=wrap;html=1;" vertex="1" parent="WIyWlLk6GJQsqaUBKTNV-1">
          <mxGeometry x="50.5" y="90" width="79" height="40" as="geometry" />
        </mxCell>
        <mxCell id="q2Y23rmSe2kXCbVwOv9_-4" value="" style="endArrow=classic;html=1;exitX=1;exitY=0.5;exitDx=0;exitDy=0;" edge="1" parent="WIyWlLk6GJQsqaUBKTNV-1" source="q2Y23rmSe2kXCbVwOv9_-1">
          <mxGeometry width="50" height="50" relative="1" as="geometry">
            <mxPoint x="160" y="250" as="sourcePoint" />
            <mxPoint x="160" y="225" as="targetPoint" />
          </mxGeometry>
        </mxCell>
        <mxCell id="q2Y23rmSe2kXCbVwOv9_-12" style="edgeStyle=orthogonalEdgeStyle;rounded=0;orthogonalLoop=1;jettySize=auto;html=1;exitX=1;exitY=0.5;exitDx=0;exitDy=0;entryX=0;entryY=0.5;entryDx=0;entryDy=0;" edge="1" parent="WIyWlLk6GJQsqaUBKTNV-1" source="q2Y23rmSe2kXCbVwOv9_-5" target="q2Y23rmSe2kXCbVwOv9_-10">
          <mxGeometry relative="1" as="geometry">
            <mxPoint x="280" y="130" as="targetPoint" />
            <Array as="points">
              <mxPoint x="280" y="225" />
              <mxPoint x="280" y="165" />
            </Array>
          </mxGeometry>
        </mxCell>
        <mxCell id="q2Y23rmSe2kXCbVwOv9_-16" style="edgeStyle=orthogonalEdgeStyle;rounded=0;orthogonalLoop=1;jettySize=auto;html=1;exitX=1;exitY=0.5;exitDx=0;exitDy=0;entryX=0;entryY=0.5;entryDx=0;entryDy=0;" edge="1" parent="WIyWlLk6GJQsqaUBKTNV-1" source="q2Y23rmSe2kXCbVwOv9_-5" target="q2Y23rmSe2kXCbVwOv9_-42">
          <mxGeometry relative="1" as="geometry">
            <mxPoint x="310" y="225" as="targetPoint" />
          </mxGeometry>
        </mxCell>
        <mxCell id="q2Y23rmSe2kXCbVwOv9_-5" value="Gyro Filtering" style="rounded=1;whiteSpace=wrap;html=1;" vertex="1" parent="WIyWlLk6GJQsqaUBKTNV-1">
          <mxGeometry x="160" y="205" width="90" height="40" as="geometry" />
        </mxCell>
        <mxCell id="q2Y23rmSe2kXCbVwOv9_-11" style="edgeStyle=orthogonalEdgeStyle;rounded=0;orthogonalLoop=1;jettySize=auto;html=1;exitX=1;exitY=0.5;exitDx=0;exitDy=0;entryX=0;entryY=0.5;entryDx=0;entryDy=0;" edge="1" parent="WIyWlLk6GJQsqaUBKTNV-1" source="q2Y23rmSe2kXCbVwOv9_-7" target="q2Y23rmSe2kXCbVwOv9_-10">
          <mxGeometry relative="1" as="geometry" />
        </mxCell>
        <mxCell id="q2Y23rmSe2kXCbVwOv9_-7" value="ACC Filtering" style="rounded=1;whiteSpace=wrap;html=1;" vertex="1" parent="WIyWlLk6GJQsqaUBKTNV-1">
          <mxGeometry x="160" y="145" width="90" height="40" as="geometry" />
        </mxCell>
        <mxCell id="q2Y23rmSe2kXCbVwOv9_-8" value="" style="endArrow=classic;html=1;exitX=1;exitY=0.5;exitDx=0;exitDy=0;entryX=0;entryY=0.5;entryDx=0;entryDy=0;" edge="1" parent="WIyWlLk6GJQsqaUBKTNV-1" source="q2Y23rmSe2kXCbVwOv9_-2" target="q2Y23rmSe2kXCbVwOv9_-7">
          <mxGeometry width="50" height="50" relative="1" as="geometry">
            <mxPoint x="140" y="140" as="sourcePoint" />
            <mxPoint x="190" y="90" as="targetPoint" />
          </mxGeometry>
        </mxCell>
        <mxCell id="q2Y23rmSe2kXCbVwOv9_-14" style="edgeStyle=orthogonalEdgeStyle;rounded=0;orthogonalLoop=1;jettySize=auto;html=1;exitX=1;exitY=0.5;exitDx=0;exitDy=0;" edge="1" parent="WIyWlLk6GJQsqaUBKTNV-1" source="q2Y23rmSe2kXCbVwOv9_-10">
          <mxGeometry relative="1" as="geometry">
            <mxPoint x="440" y="165" as="targetPoint" />
          </mxGeometry>
        </mxCell>
        <mxCell id="q2Y23rmSe2kXCbVwOv9_-10" value="Complimentary filter" style="rounded=1;whiteSpace=wrap;html=1;" vertex="1" parent="WIyWlLk6GJQsqaUBKTNV-1">
          <mxGeometry x="310" y="145" width="90" height="40" as="geometry" />
        </mxCell>
        <mxCell id="q2Y23rmSe2kXCbVwOv9_-20" style="edgeStyle=orthogonalEdgeStyle;rounded=0;orthogonalLoop=1;jettySize=auto;html=1;exitX=0.5;exitY=1;exitDx=0;exitDy=0;entryX=0.5;entryY=0;entryDx=0;entryDy=0;" edge="1" parent="WIyWlLk6GJQsqaUBKTNV-1" source="q2Y23rmSe2kXCbVwOv9_-18" target="q2Y23rmSe2kXCbVwOv9_-34">
          <mxGeometry relative="1" as="geometry">
            <mxPoint x="475" y="210" as="targetPoint" />
          </mxGeometry>
        </mxCell>
        <mxCell id="q2Y23rmSe2kXCbVwOv9_-18" value="Attitude" style="rounded=1;whiteSpace=wrap;html=1;" vertex="1" parent="WIyWlLk6GJQsqaUBKTNV-1">
          <mxGeometry x="440" y="150" width="70" height="30" as="geometry" />
        </mxCell>
        <mxCell id="q2Y23rmSe2kXCbVwOv9_-35" style="edgeStyle=orthogonalEdgeStyle;rounded=0;orthogonalLoop=1;jettySize=auto;html=1;exitX=0.5;exitY=1;exitDx=0;exitDy=0;entryX=1;entryY=0.5;entryDx=0;entryDy=0;" edge="1" parent="WIyWlLk6GJQsqaUBKTNV-1" source="q2Y23rmSe2kXCbVwOv9_-22" target="q2Y23rmSe2kXCbVwOv9_-34">
          <mxGeometry relative="1" as="geometry" />
        </mxCell>
        <mxCell id="q2Y23rmSe2kXCbVwOv9_-22" value="Attitude Setpoint" style="rounded=1;whiteSpace=wrap;html=1;" vertex="1" parent="WIyWlLk6GJQsqaUBKTNV-1">
          <mxGeometry x="580" y="170" width="70" height="40" as="geometry" />
        </mxCell>
        <mxCell id="q2Y23rmSe2kXCbVwOv9_-43" style="edgeStyle=orthogonalEdgeStyle;rounded=0;orthogonalLoop=1;jettySize=auto;html=1;exitX=0.5;exitY=1;exitDx=0;exitDy=0;" edge="1" parent="WIyWlLk6GJQsqaUBKTNV-1" source="q2Y23rmSe2kXCbVwOv9_-23" target="q2Y23rmSe2kXCbVwOv9_-42">
          <mxGeometry relative="1" as="geometry">
            <Array as="points">
              <mxPoint x="705" y="350" />
              <mxPoint x="475" y="350" />
            </Array>
          </mxGeometry>
        </mxCell>
        <mxCell id="q2Y23rmSe2kXCbVwOv9_-23" value="Rate Setpoint" style="rounded=1;whiteSpace=wrap;html=1;" vertex="1" parent="WIyWlLk6GJQsqaUBKTNV-1">
          <mxGeometry x="670" y="170" width="70" height="40" as="geometry" />
        </mxCell>
        <mxCell id="q2Y23rmSe2kXCbVwOv9_-30" style="edgeStyle=orthogonalEdgeStyle;rounded=0;orthogonalLoop=1;jettySize=auto;html=1;exitX=0.5;exitY=1;exitDx=0;exitDy=0;entryX=0.5;entryY=0;entryDx=0;entryDy=0;" edge="1" parent="WIyWlLk6GJQsqaUBKTNV-1" source="q2Y23rmSe2kXCbVwOv9_-26" target="q2Y23rmSe2kXCbVwOv9_-22">
          <mxGeometry relative="1" as="geometry" />
        </mxCell>
        <mxCell id="q2Y23rmSe2kXCbVwOv9_-31" style="edgeStyle=orthogonalEdgeStyle;rounded=0;orthogonalLoop=1;jettySize=auto;html=1;exitX=0.5;exitY=1;exitDx=0;exitDy=0;entryX=0.5;entryY=0;entryDx=0;entryDy=0;" edge="1" parent="WIyWlLk6GJQsqaUBKTNV-1" source="q2Y23rmSe2kXCbVwOv9_-26" target="q2Y23rmSe2kXCbVwOv9_-23">
          <mxGeometry relative="1" as="geometry" />
        </mxCell>
        <mxCell id="q2Y23rmSe2kXCbVwOv9_-26" value="Dynamic Rates" style="rounded=1;whiteSpace=wrap;html=1;" vertex="1" parent="WIyWlLk6GJQsqaUBKTNV-1">
          <mxGeometry x="630" y="90" width="70" height="40" as="geometry" />
        </mxCell>
        <mxCell id="q2Y23rmSe2kXCbVwOv9_-32" style="edgeStyle=orthogonalEdgeStyle;rounded=0;orthogonalLoop=1;jettySize=auto;html=1;exitX=1;exitY=0.5;exitDx=0;exitDy=0;" edge="1" parent="WIyWlLk6GJQsqaUBKTNV-1" source="q2Y23rmSe2kXCbVwOv9_-27">
          <mxGeometry relative="1" as="geometry">
            <mxPoint x="440" y="110" as="targetPoint" />
          </mxGeometry>
        </mxCell>
        <mxCell id="q2Y23rmSe2kXCbVwOv9_-58" style="edgeStyle=orthogonalEdgeStyle;rounded=0;orthogonalLoop=1;jettySize=auto;html=1;exitX=0.5;exitY=0;exitDx=0;exitDy=0;entryX=0.5;entryY=0;entryDx=0;entryDy=0;" edge="1" parent="WIyWlLk6GJQsqaUBKTNV-1" source="q2Y23rmSe2kXCbVwOv9_-27" target="q2Y23rmSe2kXCbVwOv9_-49">
          <mxGeometry relative="1" as="geometry">
            <Array as="points">
              <mxPoint x="372" y="20" />
              <mxPoint x="775" y="20" />
            </Array>
          </mxGeometry>
        </mxCell>
        <mxCell id="q2Y23rmSe2kXCbVwOv9_-27" value="GPS PID" style="rounded=1;whiteSpace=wrap;html=1;" vertex="1" parent="WIyWlLk6GJQsqaUBKTNV-1">
          <mxGeometry x="329" y="95" width="85" height="30" as="geometry" />
        </mxCell>
        <mxCell id="q2Y23rmSe2kXCbVwOv9_-36" style="edgeStyle=orthogonalEdgeStyle;rounded=0;orthogonalLoop=1;jettySize=auto;html=1;exitX=1;exitY=0.5;exitDx=0;exitDy=0;entryX=1;entryY=0.5;entryDx=0;entryDy=0;" edge="1" parent="WIyWlLk6GJQsqaUBKTNV-1" source="q2Y23rmSe2kXCbVwOv9_-33" target="q2Y23rmSe2kXCbVwOv9_-34">
          <mxGeometry relative="1" as="geometry">
            <Array as="points">
              <mxPoint x="560" y="110" />
              <mxPoint x="560" y="235" />
            </Array>
          </mxGeometry>
        </mxCell>
        <mxCell id="q2Y23rmSe2kXCbVwOv9_-33" value="GPS Attitude Setpoint" style="rounded=1;whiteSpace=wrap;html=1;" vertex="1" parent="WIyWlLk6GJQsqaUBKTNV-1">
          <mxGeometry x="440" y="95" width="85" height="30" as="geometry" />
        </mxCell>
        <mxCell id="q2Y23rmSe2kXCbVwOv9_-37" style="edgeStyle=orthogonalEdgeStyle;rounded=0;orthogonalLoop=1;jettySize=auto;html=1;exitX=0.5;exitY=1;exitDx=0;exitDy=0;" edge="1" parent="WIyWlLk6GJQsqaUBKTNV-1" source="q2Y23rmSe2kXCbVwOv9_-34">
          <mxGeometry relative="1" as="geometry">
            <mxPoint x="475" y="280" as="targetPoint" />
          </mxGeometry>
        </mxCell>
        <mxCell id="q2Y23rmSe2kXCbVwOv9_-34" value="Attitude PID" style="rounded=1;whiteSpace=wrap;html=1;" vertex="1" parent="WIyWlLk6GJQsqaUBKTNV-1">
          <mxGeometry x="427.5" y="220" width="95" height="30" as="geometry" />
        </mxCell>
        <mxCell id="q2Y23rmSe2kXCbVwOv9_-44" style="edgeStyle=orthogonalEdgeStyle;rounded=0;orthogonalLoop=1;jettySize=auto;html=1;exitX=0.5;exitY=1;exitDx=0;exitDy=0;entryX=0.5;entryY=0;entryDx=0;entryDy=0;" edge="1" parent="WIyWlLk6GJQsqaUBKTNV-1" source="q2Y23rmSe2kXCbVwOv9_-41" target="q2Y23rmSe2kXCbVwOv9_-42">
          <mxGeometry relative="1" as="geometry" />
        </mxCell>
        <mxCell id="q2Y23rmSe2kXCbVwOv9_-41" value="Rate Setpoint" style="rounded=1;whiteSpace=wrap;html=1;" vertex="1" parent="WIyWlLk6GJQsqaUBKTNV-1">
          <mxGeometry x="440" y="280" width="70" height="40" as="geometry" />
        </mxCell>
        <mxCell id="q2Y23rmSe2kXCbVwOv9_-45" style="edgeStyle=orthogonalEdgeStyle;rounded=0;orthogonalLoop=1;jettySize=auto;html=1;exitX=0.5;exitY=1;exitDx=0;exitDy=0;" edge="1" parent="WIyWlLk6GJQsqaUBKTNV-1" source="q2Y23rmSe2kXCbVwOv9_-42">
          <mxGeometry relative="1" as="geometry">
            <mxPoint x="475" y="440" as="targetPoint" />
          </mxGeometry>
        </mxCell>
        <mxCell id="q2Y23rmSe2kXCbVwOv9_-42" value="Rate PID" style="rounded=1;whiteSpace=wrap;html=1;" vertex="1" parent="WIyWlLk6GJQsqaUBKTNV-1">
          <mxGeometry x="427.5" y="380" width="95" height="30" as="geometry" />
        </mxCell>
        <mxCell id="q2Y23rmSe2kXCbVwOv9_-52" style="edgeStyle=orthogonalEdgeStyle;rounded=0;orthogonalLoop=1;jettySize=auto;html=1;exitX=0.5;exitY=1;exitDx=0;exitDy=0;entryX=0.5;entryY=0;entryDx=0;entryDy=0;" edge="1" parent="WIyWlLk6GJQsqaUBKTNV-1" source="q2Y23rmSe2kXCbVwOv9_-47" target="q2Y23rmSe2kXCbVwOv9_-48">
          <mxGeometry relative="1" as="geometry" />
        </mxCell>
        <mxCell id="q2Y23rmSe2kXCbVwOv9_-47" value="Motor Mixer" style="rounded=1;whiteSpace=wrap;html=1;" vertex="1" parent="WIyWlLk6GJQsqaUBKTNV-1">
          <mxGeometry x="427.5" y="440" width="95" height="30" as="geometry" />
        </mxCell>
        <mxCell id="q2Y23rmSe2kXCbVwOv9_-57" style="edgeStyle=orthogonalEdgeStyle;rounded=0;orthogonalLoop=1;jettySize=auto;html=1;exitX=1;exitY=0.5;exitDx=0;exitDy=0;entryX=0;entryY=0.5;entryDx=0;entryDy=0;" edge="1" parent="WIyWlLk6GJQsqaUBKTNV-1" source="q2Y23rmSe2kXCbVwOv9_-48" target="q2Y23rmSe2kXCbVwOv9_-56">
          <mxGeometry relative="1" as="geometry" />
        </mxCell>
        <mxCell id="q2Y23rmSe2kXCbVwOv9_-48" value="Thrust Linear" style="rounded=1;whiteSpace=wrap;html=1;" vertex="1" parent="WIyWlLk6GJQsqaUBKTNV-1">
          <mxGeometry x="427.5" y="500" width="95" height="30" as="geometry" />
        </mxCell>
        <mxCell id="q2Y23rmSe2kXCbVwOv9_-51" style="edgeStyle=orthogonalEdgeStyle;rounded=0;orthogonalLoop=1;jettySize=auto;html=1;exitX=0.5;exitY=1;exitDx=0;exitDy=0;entryX=1;entryY=0.5;entryDx=0;entryDy=0;" edge="1" parent="WIyWlLk6GJQsqaUBKTNV-1" source="q2Y23rmSe2kXCbVwOv9_-49" target="q2Y23rmSe2kXCbVwOv9_-47">
          <mxGeometry relative="1" as="geometry" />
        </mxCell>
        <mxCell id="q2Y23rmSe2kXCbVwOv9_-49" value="Throttle" style="rounded=1;whiteSpace=wrap;html=1;" vertex="1" parent="WIyWlLk6GJQsqaUBKTNV-1">
          <mxGeometry x="740" y="260" width="70" height="30" as="geometry" />
        </mxCell>
        <mxCell id="q2Y23rmSe2kXCbVwOv9_-56" value="Motors" style="rounded=0;whiteSpace=wrap;html=1;" vertex="1" parent="WIyWlLk6GJQsqaUBKTNV-1">
          <mxGeometry x="570" y="500" width="80" height="30" as="geometry" />
        </mxCell>
      </root>
    </mxGraphModel>
  </diagram>
</mxfile>
